<?xml version="1.0" encoding="utf-8"?>
<!-- Generator: Adobe Illustrator 18.0.0, SVG Export Plug-In . SVG Version: 6.00 Build 0)  -->
<!DOCTYPE svg PUBLIC "-//W3C//DTD SVG 1.1//EN" "http://www.w3.org/Graphics/SVG/1.1/DTD/svg11.dtd">
<svg version="1.1" id="Layer_1" xmlns="http://www.w3.org/2000/svg" xmlns:xlink="http://www.w3.org/1999/xlink" x="0px" y="0px"
	 width="392.7px" height="66.1px" viewBox="0 0 392.7 66.1" enable-background="new 0 0 392.7 66.1" xml:space="preserve">
<g id="line">
	<path d="M42.8,53.3H32.6l-5.7-21.4l-5.6,21.4H11l-9.7-35h10.6l4.9,22.6L23,18.3H31l6.3,22.8l4.9-22.8h10.8L42.8,53.3z"/>
	<path d="M79.4,42.6c-1.4,0.3-3,0.4-4.6,0.4H68v10.4h-9.8v-35h17.6c8.3,0,13.7,4.9,13.7,12.4C89.5,37,85.6,41.4,79.4,42.6z
		 M74.8,26.5H68v8.4h7.8c2.4,0,4.1-1.5,4.1-4.2C79.9,27.2,77.4,26.5,74.8,26.5z"/>
	<path d="M130.2,35.7c0,10.1-6.8,18.4-18.7,18.4c-11.8,0-18.6-8.3-18.6-18.4c0-10,6.8-18.2,18.6-18.2
		C123.4,17.5,130.2,25.8,130.2,35.7z M120.2,35.7c0-5.3-2.9-9.9-8.6-9.9c-5.6,0-8.5,4.6-8.5,9.9c0,5.4,2.9,10,8.5,10
		C117.3,45.8,120.2,41.2,120.2,35.7z"/>
	<path d="M161.7,54c-6.6,0-12.3-2.3-15.4-7.4l5.9-3.9c2.3,3.3,6.4,4.6,10,4.6c3.1,0,4.9-1,4.9-2.5c0-2.2-2.8-2.6-6.5-3.1
		c-7.2-1-12.5-3.1-12.5-9.7c0-6.6,5.8-9.7,12.8-9.7c6.9,0,11.8,2.9,14.5,5.8l-5.2,4.6c-1.9-2-5.2-3.7-9.3-3.7
		c-2.5,0-4.4,0.9-4.4,2.3c0,1.9,2.9,2.2,6.7,2.8c7.2,1.2,12.5,3.4,12.5,9.7C175.6,50,170.3,54,161.7,54z"/>
	<path d="M202,51.3c-2.1,1.6-4.8,2.7-8.4,2.7c-3.9,0-6.9-1.2-8.7-3.8c-1.3-1.8-1.8-3.9-1.8-7V29.5h-4.8v-6.6h4.8v-7.5h8.8v7.5h8.7
		v6.6h-8.7v13.7c0,2.3,1.3,3.2,3.1,3.2c1.5,0,2.8-0.6,3.7-1.4L202,51.3z"/>
	<path d="M205.3,25.7c4.2-2.4,8.4-3.5,13.2-3.5c7.8,0,13.1,2.9,13.1,10.6v13c0,1.4,0.5,1.9,1.6,1.9c0.6,0,1.1-0.1,1.5-0.4l0.9,5.5
		c-1.2,0.7-3.3,1-4.7,1c-2.9,0-5.5-1.2-6.4-3.9c-2.2,3-6.1,4.1-9.6,4.1c-6.2,0-10.5-3.4-10.5-9.5c0-7.4,6.4-8.9,11.2-9.4
		c4.8-0.5,7.4-0.7,7.4-2.9c0-2.3-2.7-2.9-4.9-2.9c-3.1,0-6.8,1-9.6,2.9L205.3,25.7z M222.8,38.6c-1.3,1.5-3.2,1.6-5.6,2
		c-2.2,0.3-4.3,0.9-4.3,3.6c0,2.3,1.8,3.4,4.3,3.4c3.2,0,5.6-1.8,5.6-5.6V38.6z"/>
	<path d="M260.2,51.3c-2.1,1.6-4.8,2.7-8.4,2.7c-3.9,0-6.9-1.2-8.7-3.8c-1.3-1.8-1.8-3.9-1.8-7V29.5h-4.8v-6.6h4.8v-7.5h8.8v7.5h8.7
		v6.6h-8.7v13.7c0,2.3,1.3,3.2,3.1,3.2c1.5,0,2.8-0.6,3.7-1.4L260.2,51.3z"/>
	<path d="M277.2,54c-6.6,0-12.3-2.3-15.4-7.4l5.9-3.9c2.3,3.3,6.4,4.6,10,4.6c3.1,0,4.9-1,4.9-2.5c0-2.2-2.8-2.6-6.5-3.1
		c-7.2-1-12.5-3.1-12.5-9.7c0-6.6,5.8-9.7,12.8-9.7c6.9,0,11.8,2.9,14.5,5.8l-5.2,4.6c-1.9-2-5.2-3.7-9.3-3.7
		c-2.5,0-4.4,0.9-4.4,2.3c0,1.9,2.9,2.2,6.7,2.8c7.2,1.2,12.5,3.4,12.5,9.7C291.1,50,285.8,54,277.2,54z"/>
</g>
<g id="chart">
<line fill="#231F20" stroke="#000000" stroke-width="4" stroke-miterlimit="10" x1="325.5" y1="34.5" x2="304.3" y2="61.8"/>
<line fill="#3399CC" stroke="#000000" stroke-width="4" stroke-linecap="round" stroke-linejoin="round" stroke-miterlimit="10" x1="346.7" y1="48.2" x2="325.5" y2="34.5"/>
<line stroke="#000000" stroke-width="4" stroke-linecap="round" stroke-linejoin="round" stroke-miterlimit="10" x1="362.7" y1="22.3" x2="346.7" y2="48.2"/>
<line fill="#231F20" stroke="#000000" stroke-width="4" stroke-miterlimit="10" x1="385.5" y1="7.2" x2="364.3" y2="20.8"/>
<circle fill="#FFFFFF" stroke="#AD3D3C" stroke-width="4" stroke-miterlimit="10" cx="325.5" cy="36.2" r="5.2"/>
<circle fill="#FFFFFF" stroke="#2C8DC9" stroke-width="4" stroke-miterlimit="10" cx="364.3" cy="19.2" r="5.2"/>
<circle fill="#FFFFFF" stroke="#7A3CAA" stroke-width="4" stroke-miterlimit="10" cx="385.5" cy="7.2" r="5.2"/>
<circle fill="#FFFFFF" stroke="#5D7A1A" stroke-width="4" stroke-miterlimit="10" cx="346.7" cy="48.2" r="5.2"/>
</g>
</svg>
